<svg width="112" height="80" viewBox="0 0 112 80" fill="none" xmlns="http://www.w3.org/2000/svg">
<path d="M220.381 14.3555C216.386 20.2004 212.514 26.2285 209.097 32.6259C216.174 26.1874 222.628 18.734 228.891 11.1332C230.708 8.9194 233.22 5.69535 235.007 3.39433C235.943 2.19798 235.912 0.254112 234.938 -0.935157C234.093 -1.96365 232.823 -2.09169 231.897 -1.33777C229.511 0.577349 227.144 2.49178 224.806 4.49348C218.938 9.48203 213.204 14.7196 207.78 20.4426C206.692 21.5896 205.614 22.7693 204.564 24.0031C205.91 23.3436 207.218 22.6192 208.516 21.8731C212.549 19.5521 216.503 17.0242 220.381 14.3555ZM199.827 -7.89705C196.949 -4.07322 193.968 -0.378073 190.83 3.12421C189.88 4.17744 188.911 5.22031 187.897 6.22074C188.488 4.78348 189.116 3.40004 189.771 2.02661C194.305 -7.49705 199.607 -16.3871 205.232 -24.9249C207.041 -27.5693 210.441 -24.9702 209.381 -21.7136C205.415 -10.2778 201.073 1.05092 195.455 11.3787C196.557 4.82717 198.071 -1.5745 199.828 -7.886L199.827 -7.89705ZM177.626 2.94627C176.006 -4.68326 174.91 -12.4876 174.009 -20.2885C173.009 -14.5255 171.867 -8.80115 170.526 -3.16872C170.107 -1.42858 169.678 0.311894 169.179 2.04405C169.099 -1.63301 169.198 -5.27272 169.341 -8.92515C169.71 -17.9793 170.495 -27.0164 171.504 -35.9736L172.147 -41.3361C172.307 -42.7126 173.212 -43.7973 174.376 -43.8862C175.725 -43.9933 176.907 -42.7125 177.007 -41.0255C177.21 -37.7953 177.508 -33.2646 177.64 -30.0758C178.115 -19.0869 178.355 -8.01154 177.617 2.94661L177.626 2.94627ZM142.534 -35.7559C149.364 -22.3809 156.025 -8.77833 161.813 5.34401C155.985 -3.1406 150.538 -12.0708 145.255 -21.1179C147.783 -13.3464 150.189 -5.51499 152.393 2.35732C153.09 4.83922 153.752 7.33351 154.379 9.85122C152.163 5.36107 150.103 0.776532 148.077 -3.84247C143.062 -15.3422 138.39 -27.1313 133.945 -38.9735L131.309 -46.1109C130.806 -47.4619 131.151 -49.0886 132.171 -49.9235C133.295 -50.8398 134.814 -50.434 135.568 -49.0152C137.637 -45.1162 140.544 -39.658 142.525 -35.7556L142.534 -35.7559ZM106.88 -18.8812C103.761 -22.2536 97.5455 -29.0767 94.4593 -32.5056C93.5358 -33.52 93.3367 -35.2474 94.0308 -36.5229C94.7824 -37.9111 96.3087 -38.246 97.4248 -37.2832C103.946 -31.6986 111.093 -25.5081 117.47 -19.7632C128.511 -9.82113 139.461 0.301219 149.961 11.1371C139.838 4.12157 129.984 -3.46794 120.221 -11.2378C126.864 -3.40335 133.389 4.56824 139.724 12.6576C141.658 15.1251 143.559 17.6271 145.443 20.1628C140.979 16.0906 136.631 11.837 132.3 7.54971C123.71 -1.0056 115.194 -9.91742 106.88 -18.8812ZM60.902 -2.26192L49.6883 -7.72154C48.5075 -8.29505 47.8437 -9.91621 48.1831 -11.4433C48.5456 -13.0597 49.8993 -13.9737 51.2092 -13.4935C64.2477 -8.65657 79.1762 -2.97496 92.0928 2.14296C109.529 9.08756 127.044 16.2501 144.241 24.1101C127.346 19.2666 110.45 13.7269 93.6887 7.99413C107.454 15.1792 121.148 22.577 134.695 30.2788C136.522 31.3359 138.349 32.3708 140.169 33.4613C136.891 32.1727 132.009 30.1168 128.727 28.7399C105.932 19.0835 83.3622 8.58975 60.9028 -2.23984L60.902 -2.26192ZM139.375 48.0244C121.004 46.9066 102.67 45.1464 84.3386 43.2204C71.1943 41.8466 56.3364 40.0745 43.1466 38.4372L29.4301 36.6765C28.1678 36.515 27.1782 35.1605 27.1869 33.5467C27.2016 31.8552 28.3095 30.5307 29.6647 30.5781C66.3174 31.8667 103.403 33.5917 139.968 37.2154C120.242 37.8848 100.379 37.9958 80.5209 37.7861C91.092 39.4135 101.64 41.1191 112.049 42.9185C121.16 44.5356 130.28 46.1303 139.383 48.002L139.375 48.0244ZM140.393 62.7831C118.928 68.6249 97.3676 73.8295 75.766 78.881C60.275 82.5041 42.7243 86.3943 27.1268 89.7784L10.8866 93.2425C9.62318 93.512 8.37243 92.4991 8.05524 90.9199C7.72668 89.2748 8.53038 87.6305 9.84255 87.2485C52.4823 74.9128 95.6899 62.8536 138.719 52.8238C116.96 60.4673 94.9544 67.6561 72.884 74.549C84.5366 72.3221 96.175 70.1842 107.685 68.1617C118.573 66.2847 129.469 64.3963 140.393 62.7831ZM145.689 77.4658C122.29 91.8916 98.6642 105.74 74.9887 119.436C58.0022 129.261 38.7135 140.181 21.5608 149.824L3.69568 159.805C2.5266 160.458 1.11444 159.849 0.501184 158.391C-0.131433 156.891 0.319747 155.05 1.51992 154.285C47.717 124.717 94.8726 95.0003 141.885 67.5552C117.443 84.7618 92.5348 101.61 67.5188 118.176C81.4811 110.677 95.49 103.243 109.443 95.9768C121.508 89.7334 133.554 83.4687 145.707 77.4651L145.689 77.4658ZM18.2563 222.227C61.5993 174.776 105.94 126.823 150.496 81.2376C129.431 106.006 107.908 130.615 86.2181 155.01C97.2507 144.242 108.295 133.551 119.165 123.143C130.487 112.331 141.81 101.508 153.264 90.9006C131.681 114.164 109.779 136.942 87.7917 159.591C66.8252 181.173 42.678 205.618 21.4354 226.924C18.8549 229.288 15.9699 224.879 18.2471 222.217L18.2563 222.227Z" fill="url(#paint0_radial_3446_46433)"/>
<defs>
<radialGradient id="paint0_radial_3446_46433" cx="0" cy="0" r="1" gradientUnits="userSpaceOnUse" gradientTransform="translate(131.358 84.9409) rotate(103.492) scale(158.119 131.753)">
<stop stop-color="#F47920"/>
<stop offset="0.65" stop-color="#DC3069"/>
<stop offset="1" stop-color="#D20F8C"/>
</radialGradient>
</defs>
</svg>
