<svg width="495" height="104" viewBox="0 0 495 104" fill="none" xmlns="http://www.w3.org/2000/svg">
<mask id="mask0_3488_52505" style="mask-type:alpha" maskUnits="userSpaceOnUse" x="0" y="0" width="495" height="104">
<rect width="495" height="104" fill="#D9D9D9"/>
</mask>
<g mask="url(#mask0_3488_52505)">
<g opacity="0.39">
<mask id="mask1_3488_52505" style="mask-type:alpha" maskUnits="userSpaceOnUse" x="0" y="-1" width="1453" height="105">
<rect y="-1" width="1453" height="105" fill="#081033"/>
</mask>
<g mask="url(#mask1_3488_52505)">
<path d="M659.256 -55.9254C650.861 -48.8319 642.219 -42.0172 633.196 -35.621C630.465 -33.6988 627.689 -31.801 624.798 -29.9976C626.648 -32.7625 628.587 -35.4119 630.596 -38.0358C644.507 -56.2318 660.332 -73.0026 676.947 -89.0017C682.271 -93.9439 690.793 -88.0468 687.34 -81.7261C674.566 -59.5796 660.816 -37.7235 643.869 -18.1318C648.078 -31.0545 653.353 -43.5936 659.255 -55.9032L659.256 -55.9254ZM598.149 -38.6296C595.337 -54.2615 593.952 -70.139 593.084 -85.9701C589.301 -74.6089 585.147 -63.354 580.484 -52.3232C579.028 -48.9164 577.549 -45.5107 575.883 -42.1359C576.392 -49.5289 577.367 -56.811 578.46 -64.11C581.211 -82.2008 585.064 -100.173 589.498 -117.941L592.256 -128.57C592.948 -131.3 595.565 -133.294 598.675 -133.239C602.281 -133.183 605.169 -130.376 605.105 -126.971C605.015 -120.45 604.92 -111.3 604.645 -104.877C603.758 -82.7349 602.229 -60.4671 598.125 -38.6307L598.149 -38.6296ZM512.487 -123.322C528.016 -95.1169 543.054 -66.4894 555.669 -36.9945C541.845 -55.1869 529.12 -74.1968 516.852 -93.4082C522.048 -77.3093 526.909 -61.1145 531.225 -44.8782C532.591 -39.759 533.862 -34.622 535.036 -29.4449C530.027 -38.8981 525.451 -48.5094 520.971 -58.1831C509.896 -82.2612 499.789 -106.851 490.297 -131.502L484.69 -146.35C483.618 -149.162 484.851 -152.356 487.726 -153.826C490.89 -155.439 494.848 -154.32 496.571 -151.322C501.307 -143.084 507.964 -131.55 512.464 -123.323L512.487 -123.322ZM414.459 -96.627C406.831 -104.019 391.653 -118.956 384.124 -126.455C381.869 -128.676 381.678 -132.181 383.772 -134.601C386.04 -137.235 390.161 -137.6 392.938 -135.444C409.172 -122.931 426.947 -109.076 442.767 -96.27C470.156 -74.1068 497.27 -51.6 523.048 -27.7522C497.524 -43.8599 472.828 -61.0649 448.409 -78.6135C464.526 -61.5619 480.302 -44.2588 495.55 -26.7575C500.208 -21.4187 504.768 -16.0175 509.278 -10.5519C498.214 -19.6182 487.495 -29.0248 476.827 -38.4959C455.677 -57.3848 434.796 -76.974 414.459 -96.627ZM289.053 -72.5179L260.328 -85.723C257.303 -87.1107 255.856 -90.4964 257.057 -93.4919C258.336 -96.6619 262.111 -98.2238 265.497 -96.9975C299.192 -84.6752 337.744 -70.2787 371.06 -57.4172C416.026 -39.9834 461.161 -22.0963 505.313 -2.87401C461.372 -15.984 417.567 -30.4908 374.155 -45.3579C409.323 -28.1788 444.259 -10.5872 478.743 7.58479C483.392 10.0724 488.042 12.5156 492.664 15.0688C484.207 11.8252 471.638 6.72026 463.189 3.29886C404.516 -20.6514 346.603 -46.2367 289.051 -72.4734L289.053 -72.5179ZM487.706 44.1262C439.116 38.1946 390.75 30.9817 342.424 23.4364C307.77 18.0407 268.642 11.5018 233.919 5.56835L197.821 -0.718496C194.499 -1.29596 192.135 -4.21205 192.474 -7.44802C192.843 -10.8385 196.046 -13.2732 199.637 -12.906C296.765 -2.9606 394.957 7.94734 491.396 22.5602C438.855 19.9418 386.061 16.1757 333.344 11.7673C361.111 17.155 388.8 22.695 416.105 28.3953C439.996 33.4693 463.912 38.4999 487.732 44.0829L487.706 44.1262ZM487.524 73.94C429.353 81.3497 371.053 87.4617 312.673 93.2582C270.807 97.4163 223.417 101.696 181.315 105.354L137.49 109.042C134.081 109.329 130.956 107.046 130.422 103.814C129.871 100.448 132.328 97.31 135.889 96.8072C251.588 80.6215 368.742 65.1047 485.025 53.6232C425.721 64.5884 365.849 74.5918 305.863 83.9886C337.258 81.8609 368.597 79.9089 399.573 78.1626C428.866 76.5832 458.185 74.9827 487.524 73.94ZM498.724 104.461C433.733 128.703 368.256 151.742 302.675 174.465C255.623 190.766 202.241 208.799 154.782 224.702L105.366 241.138C102.132 242.212 98.4992 240.707 97.1549 237.66C95.7677 234.522 97.3265 230.92 100.665 229.627C229.186 179.582 360.283 129.434 490.556 83.8137C422.25 113.426 352.779 142.226 283.075 170.437C321.637 158.197 360.311 146.095 398.804 134.319C432.078 124.216 465.308 114.067 498.771 104.463L498.724 104.461ZM131.841 369.295C256.277 282.802 383.463 195.5 510.757 112.993C449.945 158.454 387.95 203.504 325.552 248.09C356.969 228.703 388.404 209.472 419.318 190.774C451.516 171.356 483.714 151.915 516.222 132.935C454.329 175.273 391.682 216.573 328.836 257.597C268.91 296.685 199.974 340.878 139.369 379.355C132.05 383.581 125.248 374.156 131.819 369.272L131.841 369.295Z" fill="url(#paint0_radial_3488_52505)"/>
<path d="M-81.3471 -43.2335C-85.5984 -33.2804 -90.1715 -23.4339 -95.5443 -14.0485C-92.8827 -29.1868 -88.5211 -43.9943 -83.8015 -58.6087C-82.4341 -62.8533 -80.3165 -68.8255 -78.8039 -73.0706C-78.0193 -75.2927 -75.5878 -76.4592 -73.3656 -75.6747C-71.4523 -75.005 -70.3234 -73.0957 -70.5539 -71.1495C-71.1275 -66.2219 -71.7141 -61.2861 -72.433 -56.358C-74.2008 -44.02 -76.3687 -31.7394 -79.3776 -19.639C-79.9885 -17.1987 -80.6288 -14.7762 -81.3671 -12.3648C-81.553 -14.8859 -81.6539 -17.3877 -81.7075 -19.901C-81.879 -27.689 -81.7306 -35.4601 -81.3471 -43.2335ZM-38.0461 -25.0219C-40.6242 -18.1049 -42.9736 -11.1135 -44.9423 -3.97977C-45.5328 -1.82511 -46.107 0.355611 -46.5667 2.57351C-45.2244 0.746167 -43.9751 -1.11353 -42.7553 -2.99108C-34.3374 -16.0944 -27.2995 -30.0028 -20.9251 -44.1851C-19.0085 -48.6844 -24.824 -52.3742 -28.0782 -48.6704C-39.3107 -35.2693 -50.1089 -21.3229 -58.7126 -6.02866C-51.3994 -11.8687 -44.5712 -18.2768 -38.0509 -25.0006L-38.0461 -25.0219ZM-34.7089 16.6149C-23.9782 14.3547 -13.4366 11.1583 -3.04107 7.67188C-9.46178 12.8775 -15.7122 18.267 -21.717 23.9021C-23.5786 25.656 -25.4108 27.4278 -27.1855 29.2908C-22.5572 27.1054 -18.0928 24.6594 -13.6435 22.1319C-2.65778 15.8542 8.01576 8.93612 18.3979 1.72843L24.596 -2.64569C26.1805 -3.77035 26.8463 -5.86322 26.0798 -7.74592C25.1801 -9.92688 22.7041 -10.9702 20.5232 -10.0705C16.3389 -8.36474 10.4837 -5.98942 6.39929 -4.18279C-7.64694 2.0017 -21.6136 8.57275 -34.7007 16.6279L-34.7089 16.6149ZM40.0876 47.2602C18.2538 44.974 -3.73547 43.0768 -25.7014 42.8932C-10.7128 46.7042 4.54707 49.6167 19.8027 52.2044C8.21417 53.1306 -3.35895 54.2835 -14.8428 55.7806C-18.4565 56.2539 -22.0717 56.7827 -25.6801 57.38C-18.4134 58.0279 -11.1346 58.377 -3.85768 58.6364C14.2561 59.2614 32.4869 59.176 50.6004 58.6732L61.4775 58.3222C63.5468 58.2569 65.3095 56.6926 65.5656 54.5847C65.8536 52.2384 64.1919 50.1186 61.8456 49.8306C55.4158 49.0381 46.4142 47.9176 40.0533 47.2636L40.0876 47.2602ZM46.1376 113.788C52.7076 116.567 65.906 122.014 72.5213 124.691C74.4824 125.494 76.7879 124.735 77.846 122.831C78.9935 120.781 78.2671 118.182 76.2168 117.034C64.3201 110.331 51.1877 103.023 39.1974 96.6336C18.4441 85.5712 -2.46177 74.7869 -23.9141 65.1287C-7.50269 76.5769 9.41557 87.2695 26.4994 97.6759C11.6998 92.1995 -3.17895 86.9731 -18.0467 82.1399C-22.5789 80.6625 -27.1468 79.2439 -31.7293 77.889C-23.2673 82.3147 -14.6871 86.4659 -6.05816 90.55C11.0951 98.6385 28.6503 106.383 46.1294 113.775L46.1376 113.788ZM60.3075 196.31L75.6143 210.455C77.2201 211.937 79.7484 211.965 81.3856 210.461C83.1188 208.879 83.2326 206.169 81.6505 204.436C65.754 187.042 47.3412 167.211 31.1749 150.169C9.29858 127.205 -12.9025 104.246 -35.7224 82.2399C-16.8706 105.688 2.82202 128.68 22.6898 151.343C3.30321 134.272 -16.2996 117.464 -36.1574 101.089C-38.8639 98.8992 -41.5394 96.6716 -44.2638 94.5111C-40.1779 98.8348 -33.9116 105.206 -29.7133 109.478C-0.404326 139.134 29.7865 167.908 60.3075 196.31ZM-61.809 104.936C-46.4793 133.02 -30.3775 160.655 -14.085 188.189C-2.40666 207.928 11.0829 230.112 23.1183 249.755L35.7192 270.151C36.8921 272.014 39.3213 272.723 41.3093 271.69C43.3966 270.613 44.2078 268.028 43.1305 265.941C13.7313 209.288 -16.5505 152.244 -48.8073 97.2071C-34.6784 128.558 -19.7551 159.755 -4.42929 190.753C-14.4704 175.205 -24.5993 159.748 -34.7355 144.568C-43.6661 131.304 -52.5657 118.003 -61.796 104.927L-61.809 104.936ZM-80.9656 112.626C-71.9574 149.948 -62.08 187.031 -51.9792 224.065C-44.7433 250.622 -36.2643 280.599 -28.6529 307.174L-20.6464 334.81C-20.0193 336.962 -17.8199 338.289 -15.6067 337.787C-13.3119 337.271 -11.8763 334.984 -12.401 332.677C-29.389 258.078 -47.1611 182.754 -67.2981 108.991C-60.3055 147.908 -52.5552 186.931 -44.4053 225.866C-50.4721 206.197 -56.6349 186.606 -62.8475 167.283C-68.7809 149.04 -74.6751 130.772 -80.9525 112.618L-80.9656 112.626ZM-103.264 113.562C-103.479 159.326 -102.782 205.063 -101.886 250.801C-101.23 283.61 -100.192 320.726 -99.1906 353.681L-98.0572 387.972C-97.975 390.212 -96.1608 392.054 -93.8806 392.093C-91.5237 392.137 -89.5776 390.258 -89.5246 387.914C-87.7508 296.903 -86.537 204.28 -88.024 113.321C-90.8947 162.467 -92.9967 212.112 -94.6369 261.739C-95.8863 235.126 -97.255 208.497 -98.7993 182.052C-100.182 159.216 -101.522 136.39 -103.264 113.562ZM-186.82 404.396C-160.633 306.588 -134.559 206.924 -111.613 108.391C-126.473 156.988 -140.786 206.223 -154.709 255.557C-149.682 231.489 -144.736 207.435 -140.033 183.862C-135.163 159.31 -130.281 134.751 -125.772 110.117C-138.37 158.581 -150.109 207.251 -161.636 255.969C-172.591 302.417 -184.72 355.643 -195.131 402.349C-196.122 407.885 -188.435 409.633 -186.849 404.378L-186.82 404.396Z" fill="url(#paint1_radial_3488_52505)"/>
</g>
</g>
</g>
<defs>
<radialGradient id="paint0_radial_3488_52505" cx="0" cy="0" r="1" gradientUnits="userSpaceOnUse" gradientTransform="translate(459.187 116.579) rotate(113.047) scale(327.175 341.899)">
<stop stop-color="#F47920"/>
<stop offset="0.65" stop-color="#DC3069"/>
<stop offset="1" stop-color="#D20F8C"/>
</radialGradient>
<radialGradient id="paint1_radial_3488_52505" cx="0" cy="0" r="1" gradientUnits="userSpaceOnUse" gradientTransform="translate(-101.632 140.801) rotate(136.604) scale(224.942 224.942)">
<stop offset="0.3" stop-color="#FDEE00"/>
<stop offset="0.36" stop-color="#F2EB06"/>
<stop offset="0.47" stop-color="#D5E416"/>
<stop offset="0.61" stop-color="#A6D831"/>
<stop offset="0.77" stop-color="#66C956"/>
<stop offset="0.96" stop-color="#14B585"/>
<stop offset="1" stop-color="#00B091"/>
</radialGradient>
</defs>
</svg>
